<?xml version="1.0" standalone="no"?>
<!DOCTYPE svg PUBLIC "-//W3C//DTD SVG 20010904//EN"
 "http://www.w3.org/TR/2001/REC-SVG-20010904/DTD/svg10.dtd">
<svg version="1.0" xmlns="http://www.w3.org/2000/svg"
 width="1000.000000pt" height="1000.000000pt" viewBox="0 0 1000.000000 1000.000000"
 preserveAspectRatio="xMidYMid meet">
<metadata>
Created by potrace 1.14, written by Peter Selinger 2001-2017
</metadata>
<g transform="translate(0.000000,1000.000000) scale(0.100000,-0.100000)"
fill="#000000" stroke="none">
<path d="M4699 9126 c-2 -2 -44 -7 -93 -11 -49 -4 -97 -8 -107 -10 -10 -2 -42
-6 -71 -9 -29 -4 -64 -8 -78 -11 -14 -3 -38 -7 -55 -10 -16 -3 -41 -8 -55 -10
-14 -3 -36 -7 -50 -10 -14 -3 -36 -7 -50 -10 -14 -3 -34 -7 -45 -9 -183 -38
-545 -152 -680 -216 -11 -5 -62 -28 -113 -50 -224 -97 -509 -262 -722 -418
-209 -152 -304 -235 -500 -431 -191 -192 -218 -222 -384 -433 -83 -106 -254
-374 -351 -549 -174 -317 -344 -805 -411 -1179 -2 -14 -9 -47 -14 -75 -5 -27
-12 -75 -15 -105 -4 -30 -8 -66 -10 -80 -3 -23 -11 -94 -21 -195 -5 -55 -5
-526 0 -600 8 -103 17 -199 21 -215 3 -8 7 -40 10 -70 3 -30 7 -62 10 -70 2
-8 7 -35 10 -60 3 -25 10 -61 15 -80 5 -19 11 -51 14 -70 15 -96 97 -385 153
-540 59 -164 99 -257 179 -421 279 -569 708 -1091 1215 -1475 114 -86 334
-234 349 -234 5 0 10 -4 10 -10 0 -5 4 -10 9 -10 5 0 42 -19 83 -43 387 -229
967 -432 1403 -492 22 -3 51 -8 65 -10 14 -3 52 -7 85 -11 33 -3 87 -9 120
-14 63 -9 752 -7 795 3 25 5 75 12 160 22 64 8 282 45 290 50 4 2 17 6 31 9
82 15 288 73 425 119 443 150 860 376 1241 673 182 143 439 390 573 554 25 30
50 60 57 68 68 73 294 393 355 502 14 25 41 72 61 105 141 241 340 736 393
980 2 11 6 29 9 40 49 207 83 400 101 592 3 32 7 74 9 93 5 47 5 564 1 615
-12 128 -17 173 -21 195 -2 14 -7 48 -10 75 -8 77 -47 292 -60 326 -2 8 -7 26
-10 42 -3 15 -7 39 -10 55 -12 57 -78 272 -122 397 -131 369 -335 751 -566
1060 -68 90 -120 158 -127 165 -3 3 -45 51 -93 107 -217 251 -537 531 -817
714 -278 182 -504 301 -775 407 -181 71 -471 160 -609 188 -217 43 -329 62
-421 70 -38 3 -81 8 -95 11 -28 7 -685 15 -691 9z"/>
</g>
</svg>
